custom-analysis
version=1
nRows=5
nColumns=98
inDegrees=no

This file contains tibia displacement and acting force.

Units are S.I. units (seconds, meters, Newtons, ...)
Angles are in degrees.

endheader
time	APT	SIT	knee_angle	aACL_R_force	pACL_R_force	aPCL_R_force	pPCL_R_force	aMCL_R_force	mMCL_R_force	pMCL_R_force	aLCL_R_force	mLCL_R_force	pLCL_R_force	aPCL_L_force	pPCL_L_force	aMCL_L_force	aLCL_L_force	aACL_R_length	pACL_R_length	aPCL_R_length	pPCL_R_length	aMCL_R_length	mMCL_R_length	pMCL_R_length	aLCL_R_length	mLCL_R_length	pLCL_R_length	aPCL_L_length	pPCL_L_length	aMCL_L_length	aLCL_L_length	aACL_R_strain	pACL_R_strain	aPCL_R_strain	pPCL_R_strain	aMCL_R_strain	mMCL_R_strain	pMCL_R_strain	aLCL_R_strain	mLCL_R_strain	pLCL_R_strain	aPCL_L_strain	pPCL_L_strain	aMCL_L_strain	aLCL_L_strain	femur_lat_meniscii_r.femur_lat_r.force.X	femur_lat_meniscii_r.femur_lat_r.force.Y	femur_lat_meniscii_r.femur_lat_r.force.Z	femur_lat_meniscii_r.femur_lat_r.torque.X	femur_lat_meniscii_r.femur_lat_r.torque.Y	femur_lat_meniscii_r.femur_lat_r.torque.Z	femur_lat_meniscii_r.meniscus_lat_r.force.X	femur_lat_meniscii_r.meniscus_lat_r.force.Y	femur_lat_meniscii_r.meniscus_lat_r.force.Z	femur_lat_meniscii_r.meniscus_lat_r.torque.X	femur_lat_meniscii_r.meniscus_lat_r.torque.Y	femur_lat_meniscii_r.meniscus_lat_r.torque.Z	femur_med_meniscii_r.femur_med_r.force.X	femur_med_meniscii_r.femur_med_r.force.Y	femur_med_meniscii_r.femur_med_r.force.Z	femur_med_meniscii_r.femur_med_r.torque.X	femur_med_meniscii_r.femur_med_r.torque.Y	femur_med_meniscii_r.femur_med_r.torque.Z	femur_med_meniscii_r.meniscus_med_r.force.X	femur_med_meniscii_r.meniscus_med_r.force.Y	femur_med_meniscii_r.meniscus_med_r.force.Z	femur_med_meniscii_r.meniscus_med_r.torque.X	femur_med_meniscii_r.meniscus_med_r.torque.Y	femur_med_meniscii_r.meniscus_med_r.torque.Z	femur_med_tibia_r.tibia_upper_r.force.X	femur_med_tibia_r.tibia_upper_r.force.Y	femur_med_tibia_r.tibia_upper_r.force.Z	femur_med_tibia_r.tibia_upper_r.torque.X	femur_med_tibia_r.tibia_upper_r.torque.Y	femur_med_tibia_r.tibia_upper_r.torque.Z	femur_med_tibia_r.femur_med_r.force.X	femur_med_tibia_r.femur_med_r.force.Y	femur_med_tibia_r.femur_med_r.force.Z	femur_med_tibia_r.femur_med_r.torque.X	femur_med_tibia_r.femur_med_r.torque.Y	femur_med_tibia_r.femur_med_r.torque.Z	femur_lat_tibia_r.tibia_upper_r.force.X	femur_lat_tibia_r.tibia_upper_r.force.Y	femur_lat_tibia_r.tibia_upper_r.force.Z	femur_lat_tibia_r.tibia_upper_r.torque.X	femur_lat_tibia_r.tibia_upper_r.torque.Y	femur_lat_tibia_r.tibia_upper_r.torque.Z	femur_lat_tibia_r.femur_lat_r.force.X	femur_lat_tibia_r.femur_lat_r.force.Y	femur_lat_tibia_r.femur_lat_r.force.Z	femur_lat_tibia_r.femur_lat_r.torque.X	femur_lat_tibia_r.femur_lat_r.torque.Y	femur_lat_tibia_r.femur_lat_r.torque.Z	femur_lat_meniscii_force_r	femur_med_meniscii_force_r	femur_lat_tibia_force_r	femur_med_tibia_force_r
      0.16120886	      0.01252096	      0.01681373	     55.26890988	    -10.85566957	      0.00000000	    534.07558313	    364.21809808	      0.00000000	      0.00000000	      0.00000000	      0.00000000	      0.00000000	      0.00000000	      0.00000000	      0.00000000	      0.00000001	      0.00000000	      0.03118587	      0.02386207	      0.03467410	      0.03232497	      0.05938718	      0.05924962	      0.05646643	      0.05231100	      0.04766570	      0.04281300	      0.01525851	      0.01651186	      0.06550154	      0.04489616	      0.00581725	     -0.04775325	      0.11509150	      0.08154397	     -0.01065890	     -0.00909602	     -0.03850919	     -0.06549456	     -0.15364199	     -0.18206360	      0.00000079	     -0.32847694	      0.00000060	     -0.00000086	     42.29304032	    100.69020440	     16.68200528	     -9.18925002	      1.05058294	     16.32063014	    -42.29304032	   -100.69020440	    -16.68200528	      2.89690217	     -1.44485805	      2.01182794	      8.47249774	     10.63781664	      8.27323243	     -3.11442075	     -0.20375907	      3.43896877	     -8.47249774	    -10.63781664	     -8.27323243	     -0.06153112	      0.02582907	      0.04226205	   -753.87069369	   -730.28221958	    230.96184752	    -16.79613302	     16.83743187	     -1.65473703	    753.87069369	    730.28221958	   -230.96184752	    106.90501903	    -13.26489422	    307.07058771	    -27.15647644	    -36.26807218	    -12.37496294	      1.20350736	     -0.97542924	      0.21868446	     27.15647644	     36.26807218	     12.37496294	     -5.92537719	      0.68888867	     10.98309623	    110.47854009	     15.91831448	     46.96793566	   1074.69833816
      0.16151237	      0.01254175	      0.01687254	     55.43468752	    -10.89213367	      0.00000000	    537.92188708	    366.13562738	      0.00000000	      0.00000000	      0.00000000	      0.00000000	      0.00000000	      0.00000000	      0.00000000	      0.00000000	      0.00000001	      0.00000000	      0.03117723	      0.02385507	      0.03469592	      0.03233708	      0.05940174	      0.05925020	      0.05645788	      0.05230595	      0.04765276	      0.04279610	      0.01525851	      0.01651186	      0.06550154	      0.04489616	      0.00553882	     -0.04803249	      0.11579293	      0.08194917	     -0.01041638	     -0.00908620	     -0.03865479	     -0.06558475	     -0.15387171	     -0.18238643	      0.00000079	     -0.32847694	      0.00000060	     -0.00000086	     42.06558731	    100.69787091	     16.31258427	     -9.03847148	      1.04145238	     16.22029608	    -42.06558731	   -100.69787091	    -16.31258427	      2.88791849	     -1.42891711	      2.03208457	      8.62745851	     10.61019348	      8.23695943	     -3.09942643	     -0.20748072	      3.50040364	     -8.62745851	    -10.61019348	     -8.23695943	     -0.06292072	      0.02959263	      0.04100581	   -759.56689082	   -730.98454811	    230.69500574	    -16.79980014	     16.95870456	     -1.65718876	    759.56689082	    730.98454811	   -230.69500574	    106.81630053	    -13.38628427	    309.35755326	    -26.06732846	    -34.66840764	    -11.84212822	      1.14947593	     -0.93630280	      0.21180053	     26.06732846	     34.66840764	     11.84212822	     -5.66858899	      0.66131690	     10.54087209	    110.34344225	     15.96423336	     44.96265230	   1079.12022355
      0.16212407	      0.01258278	      0.01699116	     55.76889586	    -10.82284188	      0.00000000	    545.58532206	    369.81495676	      0.00000000	      0.00000000	      0.00000000	      0.00000000	      0.00000000	      0.00000000	      0.00000000	      0.00000000	      0.00000001	      0.00000000	      0.03115989	      0.02384128	      0.03473979	      0.03236148	      0.05943114	      0.05925154	      0.05644093	      0.05229536	      0.04762637	      0.04276193	      0.01525851	      0.01651186	      0.06550154	      0.04489616	      0.00497951	     -0.04858283	      0.11720373	      0.08276559	     -0.00992656	     -0.00906378	     -0.03894342	     -0.06577401	     -0.15434026	     -0.18303924	      0.00000079	     -0.32847694	      0.00000060	     -0.00000086	     41.40814315	    101.01253384	     15.78331114	     -8.83876436	      1.01845164	     15.93381507	    -41.40814315	   -101.01253384	    -15.78331114	      2.89155722	     -1.39617702	      2.08634558	      8.68155164	     10.33231306	      8.13639048	     -3.06468284	     -0.20755645	      3.51840588	     -8.68155164	    -10.33231306	     -8.13639048	     -0.05994363	      0.03067934	      0.04019369	   -772.72149299	   -733.44873674	    231.62013503	    -16.86273013	     17.26950731	     -1.68077481	    772.72149299	    733.44873674	   -231.62013503	    107.25976171	    -13.67114899	    314.65417225	    -23.83401126	    -31.33459031	    -10.64373799	      1.03479382	     -0.85278066	      0.19446983	     23.83401126	     31.33459031	     10.64373799	     -5.09721627	      0.60381785	      9.63525071	    110.30539072	     15.75839085	     40.78242025	   1090.27218717
      0.16218524	      0.01258684	      0.01700302	     55.80232658	    -10.81698625	      0.00000000	    546.34897555	    370.17753780	      0.00000000	      0.00000000	      0.00000000	      0.00000000	      0.00000000	      0.00000000	      0.00000000	      0.00000000	      0.00000001	      0.00000000	      0.03115817	      0.02383993	      0.03474416	      0.03236392	      0.05943409	      0.05925169	      0.05643926	      0.05229427	      0.04762371	      0.04275851	      0.01525851	      0.01651186	      0.06550154	      0.04489616	      0.00492397	     -0.04863674	      0.11734450	      0.08284712	     -0.00987745	     -0.00906130	     -0.03897188	     -0.06579343	     -0.15438747	     -0.18310464	      0.00000079	     -0.32847694	      0.00000060	     -0.00000086	     41.37518452	    101.26336768	     15.71744363	     -8.81836304	      1.01675070	     15.91613265	    -41.37518452	   -101.26336768	    -15.71744363	      2.89680418	     -1.39328220	      2.09789330	      8.71016790	     10.31448998	      8.12312357	     -3.05958298	     -0.20826053	      3.52976592	     -8.71016790	    -10.31448998	     -8.12312357	     -0.06001747	      0.03151769	      0.03970533	   -774.24659435	   -733.38067006	    232.19186019	    -16.87736227	     17.31776176	     -1.69892042	    774.24659435	    733.38067006	   -232.19186019	    107.49696949	    -13.70745699	    315.27429698	    -23.60290855	    -31.03934989	    -10.53242091	      1.02447641	     -0.84452060	      0.19408452	     23.60290855	     31.03934989	     10.53242091	     -5.04445126	      0.59801235	      9.54105193	    110.51340897	     15.75566136	     40.39146474	   1091.42936373
      0.16249109	      0.01260696	      0.01706235	     55.96949962	    -10.73358145	      0.00000000	    550.17708351	    372.03709730	      0.00000000	      0.00000000	      0.00000000	      0.00000000	      0.00000000	      0.00000000	      0.00000000	      0.00000000	      0.00000001	      0.00000000	      0.03114960	      0.02383326	      0.03476603	      0.03237610	      0.05944886	      0.05925249	      0.05643098	      0.05228875	      0.04761036	      0.04274138	      0.01525851	      0.01651186	      0.06550154	      0.04489616	      0.00464762	     -0.04890284	      0.11804767	      0.08325462	     -0.00963131	     -0.00904801	     -0.03911285	     -0.06589196	     -0.15462452	     -0.18343196	      0.00000079	     -0.32847694	      0.00000060	     -0.00000086	     41.11252860	    101.85200439	     15.52847799	     -8.75883659	      1.00759773	     15.79541316	    -41.11252860	   -101.85200439	    -15.52847799	      2.91045579	     -1.38085739	      2.13673496	      8.65196545	     10.08623863	      8.03557031	     -3.02922518	     -0.20633638	      3.50492790	     -8.65196545	    -10.08623863	     -8.03557031	     -0.05724880	      0.03098266	      0.03840812	   -781.47873516	   -734.48245380	    232.56286154	    -16.90216333	     17.47571483	     -1.73494435	    781.47873516	    734.48245380	   -232.56286154	    107.67711983	    -13.85565067	    318.19807744	    -22.76244169	    -29.81810424	    -10.08926944	      0.98250022	     -0.81379525	      0.18951365	     22.76244169	     29.81810424	     10.08926944	     -4.83361549	      0.57684723	      9.19928582	    110.92882599	     15.52929831	     38.84638271	   1097.38733956
